<svg width="30" height="26" viewBox="0 0 30 26" fill="none" xmlns="http://www.w3.org/2000/svg">
<path fill-rule="evenodd" clip-rule="evenodd" d="M6.63874 8.83853C4.58891 9.98728 3.88659 12.5315 5.07006 14.5212C5.73184 15.6338 6.75877 16.3847 7.86003 16.6487C6.34281 17.9289 5.92147 20.1127 6.96427 21.8659C8.14774 23.8556 10.7688 24.5373 12.8187 23.3885L23.0228 17.67C25.0726 16.5213 25.7749 13.977 24.5914 11.9874C23.9385 10.8896 22.848 10.19 21.6572 9.97627C23.2911 8.71542 23.7723 6.45023 22.6972 4.64267C21.5138 2.65298 18.8926 1.97126 16.8428 3.12001L6.63874 8.83853ZM18.7397 10.4632L20.5928 9.42467C22.1302 8.56311 22.6569 6.65495 21.7693 5.16267C20.8817 3.6704 18.9159 3.15911 17.3785 4.02068L7.17445 9.73919C5.63708 10.6008 5.11034 12.5089 5.99794 14.0012C6.88554 15.4935 8.53297 16.1832 9.9248 15.4032L10.4605 16.3039L9.06866 17.0839C7.53129 17.9454 7.00455 19.8536 7.89215 21.3459C8.77975 22.8381 10.7456 23.3494 12.283 22.4879L22.487 16.7694C24.0244 15.9078 24.5511 13.9996 23.6635 12.5074C22.7759 11.0151 20.8101 10.5038 19.2728 11.3654L18.737 10.4647C18.7379 10.4642 18.7388 10.4637 18.7397 10.4632Z" fill="black"/>
<path d="M12.7781 11.635C12.7781 11.2573 13.1937 11.0243 13.5307 11.2132L17.8163 13.6149C18.1571 13.8059 18.1619 14.284 17.8249 14.4728L13.5392 16.8746C13.2022 17.0634 12.7781 16.8204 12.7781 16.4385L12.7781 11.635Z" fill="black"/>
</svg>
